<svg xmlns="http://www.w3.org/2000/svg" viewBox="0 0 325 300"><path d="M150.898 225c0 41.422-33.578 75-75 75-41.421 0-75-33.578-75-75s33.579-75 75-75c41.422 0 75 33.578 75 75" style="stroke:none;fill-rule:nonzero;fill:#cb3c33;fill-opacity:1"/><path d="M237.5 75c0 41.422-33.578 75-75 75s-75-33.578-75-75 33.578-75 75-75 75 33.578 75 75" style="stroke:none;fill-rule:nonzero;fill:#389826;fill-opacity:1"/><path d="M324.102 225c0 41.422-33.579 75-75 75-41.422 0-75-33.578-75-75s33.578-75 75-75c41.421 0 75 33.578 75 75" style="stroke:none;fill-rule:nonzero;fill:#9558b2;fill-opacity:1"/></svg>
